<?xml version="1.0" encoding="utf-8"?>
<svg width="87.616676mm" height="123.80259mm" viewBox="0 0 87.616676 123.80259" version="1.1" id="svg5" xmlns="http://www.w3.org/2000/svg">
  <title id="title63815">PS5 DualSense Controller</title>
  <g id="g1347" transform="translate(-230.50831,-118.82178)">
    <path id="path16609" style="display: inline; fill-opacity: 1; stroke-width: 2.33871px; stroke-linecap: butt; stroke-linejoin: bevel; stroke-miterlimit: 4; stroke-dasharray: none; stroke-opacity: 1; stroke: rgb(9, 9, 9); fill: rgb(118, 0, 255);" d="m 296.03632,186.89344 a 11.037217,11.037217 0 0 1 2.02435,0.20947 11.037217,11.037217 0 0 1 8.68351,12.9719 11.037217,11.037217 0 0 1 -0.16916,0.71103 l 0.0787,0.016 -4.05474,20.46499 h -0.0706 a 11.037217,11.037217 0 0 1 -11.00394,10.18818 11.037217,11.037217 0 0 1 -11.03817,-11.03619 11.037217,11.037217 0 0 1 0.51564,-3.33161 h -0.0503 l 3.97215,-20.05809 a 11.037217,11.037217 0 0 1 0.16721,-1.24483 11.037217,11.037217 0 0 1 10.94552,-8.89099 z"/>
    <path id="circle16059" style="display: inline; fill-opacity: 1; stroke-width: 2.33871px; stroke-linecap: butt; stroke-linejoin: bevel; stroke-miterlimit: 4; stroke-dasharray: none; stroke-opacity: 1; stroke: rgb(9, 9, 9); fill: rgb(118, 0, 255);" d="m 252.59699,186.89345 a 11.037217,11.037217 0 0 0 -2.02435,0.20947 11.037217,11.037217 0 0 0 -8.68353,12.97189 11.037217,11.037217 0 0 0 0.16921,0.71103 l -0.0786,0.016 4.05473,20.46499 h 0.0705 a 11.037217,11.037217 0 0 0 11.00397,10.18818 11.037217,11.037217 0 0 0 11.03819,-11.03619 11.037217,11.037217 0 0 0 -0.51565,-3.33161 h 0.0503 l -3.97214,-20.05809 a 11.037217,11.037217 0 0 0 -0.16718,-1.24483 11.037217,11.037217 0 0 0 -10.94554,-8.89098 z"/>
  </g>
  <g id="g1353" transform="translate(-230.50831,-175.7233)" style="display:inline">
    <path id="path1349" style="display: inline; fill-opacity: 1; stroke-width: 2.33871px; stroke-linecap: butt; stroke-linejoin: bevel; stroke-miterlimit: 4; stroke-dasharray: none; fill: rgb(30, 30, 30); stroke: rgb(9, 9, 9);" d="m 296.03632,186.89344 a 11.037217,11.037217 0 0 1 2.02435,0.20947 11.037217,11.037217 0 0 1 8.68351,12.9719 11.037217,11.037217 0 0 1 -0.16916,0.71103 l 0.0787,0.016 -4.05474,20.46499 h -0.0706 a 11.037217,11.037217 0 0 1 -11.00394,10.18818 11.037217,11.037217 0 0 1 -11.03817,-11.03619 11.037217,11.037217 0 0 1 0.51564,-3.33161 h -0.0503 l 3.97215,-20.05809 a 11.037217,11.037217 0 0 1 0.16721,-1.24483 11.037217,11.037217 0 0 1 10.94552,-8.89099 z"/>
    <path id="path1351" style="display: inline; fill-opacity: 1; stroke-width: 2.33871px; stroke-linecap: butt; stroke-linejoin: bevel; stroke-miterlimit: 4; stroke-dasharray: none; fill: rgb(30, 30, 30); stroke: rgb(9, 9, 9);" d="m 252.59699,186.89345 a 11.037217,11.037217 0 0 0 -2.02435,0.20947 11.037217,11.037217 0 0 0 -8.68353,12.97189 11.037217,11.037217 0 0 0 0.16921,0.71103 l -0.0786,0.016 4.05473,20.46499 h 0.0705 a 11.037217,11.037217 0 0 0 11.00397,10.18818 11.037217,11.037217 0 0 0 11.03819,-11.03619 11.037217,11.037217 0 0 0 -0.51565,-3.33161 h 0.0503 l -3.97214,-20.05809 a 11.037217,11.037217 0 0 0 -0.16718,-1.24483 11.037217,11.037217 0 0 0 -10.94554,-8.89098 z"/>
  </g>
  <style type="text/css" id="style2">
	.st0{fill:#61E0DF;}
	.st1{fill:#3ED8D2;}
</style>
  <style type="text/css" id="style2-5">
	.st0{fill:#3ED8D2;}
	.st1{fill:#61E0DF;}
	.st2{opacity:8.000000e-002;}
</style>
</svg>