<?xml version="1.0" encoding="utf-8"?>
<svg width="317.27148mm" height="176.04692mm" viewBox="0 0 317.27148 176.04692" version="1.1" id="svg5" xmlns="http://www.w3.org/2000/svg">
  <title id="title63815">PS5 DualSense Controller</title>
  <style type="text/css" id="style2">
	.st0{fill:#61E0DF;}
	.st1{fill:#3ED8D2;}
</style>
  <style type="text/css" id="style2-5">
	.st0{fill:#3ED8D2;}
	.st1{fill:#61E0DF;}
	.st2{opacity:8.000000e-002;}
</style>
  <g id="g1256" transform="translate(-7.5048464,85.885219)">
    <g id="g1236" transform="matrix(-3.8978512,0,0,3.8978512,461.28807,-332.96468)">
      <path style="opacity: 1; fill-opacity: 1; stroke-width: 0.8px; stroke-linecap: butt; stroke-linejoin: miter; stroke-miterlimit: 4; stroke-dasharray: none; stroke-opacity: 1; fill: rgb(118, 0, 255); stroke: rgb(9, 9, 9);" d="m 41.420081,89.274115 c -1.752235,0.511811 -3.336295,2.077827 -3.394329,3.975342 -0.04666,1.336461 0.03215,2.674039 -0.01549,4.01121 0.01683,1.053076 -0.09399,2.128139 0.07308,3.166763 0.639018,1.9597 2.527907,3.67355 4.680311,3.50734 2.208717,-0.0205 4.532045,0.34082 6.628363,-0.54455 1.859009,-0.69651 3.07348,-2.33741 4.421605,-3.701408 0.642426,-0.746581 1.394591,-1.420763 1.918689,-2.257221 0.483324,-1.058772 -0.03559,-2.300947 -0.866455,-3.023896 -1.542883,-1.70631 -3.189271,-3.392052 -5.197486,-4.543877 -1.586541,-0.5935 -3.31284,-0.52004 -4.977471,-0.617474 -1.090368,-0.004 -2.180475,0.04179 -3.270817,0.02777 z" id="path1232"/>
      <path style="fill-opacity: 1; stroke-width: 0px; stroke-linecap: butt; stroke-linejoin: miter; stroke-miterlimit: 4; stroke-dasharray: none; stroke-opacity: 1; stroke: rgb(9, 9, 9); fill: rgb(9, 9, 9);" d="m 41.759986,96.679225 c 0.841675,-0.598883 1.68335,-1.197767 2.525025,-1.79665 -0.01619,1.197768 -0.03237,2.395535 -0.04856,3.593303 -0.825488,-0.598884 -1.650977,-1.197769 -2.476465,-1.796653 z" id="path1234"/>
    </g>
    <g id="g1242" transform="matrix(3.8978512,0,0,3.8978512,12.219019,-332.96468)">
      <path style="opacity: 1; fill-opacity: 1; stroke-width: 0.8px; stroke-linecap: butt; stroke-linejoin: miter; stroke-miterlimit: 4; stroke-dasharray: none; stroke-opacity: 1; fill: rgb(118, 0, 255); stroke: rgb(9, 9, 9);" d="m 41.420081,89.274115 c -1.752235,0.511811 -3.336295,2.077827 -3.394329,3.975342 -0.04666,1.336461 0.03215,2.674039 -0.01549,4.01121 0.01683,1.053076 -0.09399,2.128139 0.07308,3.166763 0.639018,1.9597 2.527907,3.67355 4.680311,3.50734 2.208717,-0.0205 4.532045,0.34082 6.628363,-0.54455 1.859009,-0.69651 3.07348,-2.33741 4.421605,-3.701408 0.642426,-0.746581 1.394591,-1.420763 1.918689,-2.257221 0.483324,-1.058772 -0.03559,-2.300947 -0.866455,-3.023896 -1.542883,-1.70631 -3.189271,-3.392052 -5.197486,-4.543877 -1.586541,-0.5935 -3.31284,-0.52004 -4.977471,-0.617474 -1.090368,-0.004 -2.180475,0.04179 -3.270817,0.02777 z" id="path1238"/>
      <path style="fill-opacity: 1; stroke-width: 0px; stroke-linecap: butt; stroke-linejoin: miter; stroke-miterlimit: 4; stroke-dasharray: none; stroke-opacity: 1; stroke: rgb(9, 9, 9); fill: rgb(9, 9, 9);" d="m 41.759986,96.679225 c 0.841675,-0.598883 1.68335,-1.197767 2.525025,-1.79665 -0.01619,1.197768 -0.03237,2.395535 -0.04856,3.593303 -0.825488,-0.598884 -1.650977,-1.197769 -2.476465,-1.796653 z" id="path1240"/>
    </g>
    <g id="g1248" transform="matrix(0,-3.8978512,3.8978512,0,-258.19105,226.67343)">
      <path style="opacity: 1; fill-opacity: 1; stroke-width: 0.8px; stroke-linecap: butt; stroke-linejoin: miter; stroke-miterlimit: 4; stroke-dasharray: none; stroke-opacity: 1; fill: rgb(118, 0, 255); stroke: rgb(9, 9, 9);" d="m 41.420081,89.274115 c -1.752235,0.511811 -3.336295,2.077827 -3.394329,3.975342 -0.04666,1.336461 0.03215,2.674039 -0.01549,4.01121 0.01683,1.053076 -0.09399,2.128139 0.07308,3.166763 0.639018,1.9597 2.527907,3.67355 4.680311,3.50734 2.208717,-0.0205 4.532045,0.34082 6.628363,-0.54455 1.859009,-0.69651 3.07348,-2.33741 4.421605,-3.701408 0.642426,-0.746581 1.394591,-1.420763 1.918689,-2.257221 0.483324,-1.058772 -0.03559,-2.300947 -0.866455,-3.023896 -1.542883,-1.70631 -3.189271,-3.392052 -5.197486,-4.543877 -1.586541,-0.5935 -3.31284,-0.52004 -4.977471,-0.617474 -1.090368,-0.004 -2.180475,0.04179 -3.270817,0.02777 z" id="path1244"/>
      <path style="fill-opacity: 1; stroke-width: 0px; stroke-linecap: butt; stroke-linejoin: miter; stroke-miterlimit: 4; stroke-dasharray: none; stroke-opacity: 1; stroke: rgb(9, 9, 9); fill: rgb(9, 9, 9);" d="m 41.759986,96.679225 c 0.841675,-0.598883 1.68335,-1.197767 2.525025,-1.79665 -0.01619,1.197768 -0.03237,2.395535 -0.04856,3.593303 -0.825488,-0.598884 -1.650977,-1.197769 -2.476465,-1.796653 z" id="path1246"/>
    </g>
    <g id="g1254" transform="matrix(0,3.8978512,3.8978512,0,-328.804,-139.3726)">
      <path style="display: inline; opacity: 1; fill-opacity: 1; stroke-width: 0.8px; stroke-linecap: butt; stroke-linejoin: miter; stroke-miterlimit: 4; stroke-dasharray: none; stroke-opacity: 1; fill: rgb(118, 0, 255); stroke: rgb(9, 9, 9);" d="m 41.420081,89.274115 c -1.752235,0.511811 -3.336295,2.077827 -3.394329,3.975342 -0.04666,1.336461 0.03215,2.674039 -0.01549,4.01121 0.01683,1.053076 -0.09399,2.128139 0.07308,3.166763 0.639018,1.9597 2.527907,3.67355 4.680311,3.50734 2.208717,-0.0205 4.532045,0.34082 6.628363,-0.54455 1.859009,-0.69651 3.07348,-2.33741 4.421605,-3.701408 0.642426,-0.746581 1.394591,-1.420763 1.918689,-2.257221 0.483324,-1.058772 -0.03559,-2.300947 -0.866455,-3.023896 -1.542883,-1.70631 -3.189271,-3.392052 -5.197486,-4.543877 -1.586541,-0.5935 -3.31284,-0.52004 -4.977471,-0.617474 -1.090368,-0.004 -2.180475,0.04179 -3.270817,0.02777 z" id="path1250"/>
      <path style="fill-opacity: 1; stroke-width: 0px; stroke-linecap: butt; stroke-linejoin: miter; stroke-miterlimit: 4; stroke-dasharray: none; stroke-opacity: 1; stroke: rgb(9, 9, 9); fill: rgb(9, 9, 9);" d="m 41.759986,96.679225 c 0.841675,-0.598883 1.68335,-1.197767 2.525025,-1.79665 -0.01619,1.197768 -0.03237,2.395535 -0.04856,3.593303 -0.825488,-0.598884 -1.650977,-1.197769 -2.476465,-1.796653 z" id="path1252"/>
    </g>
  </g>
  <g id="g1106" transform="translate(-7.5048464,2.8608699)">
    <g id="g1092" transform="matrix(-3.8978512,0,0,3.8978512,461.28807,-332.96468)">
      <path style="opacity: 1; stroke-width: 0.8px; stroke-linecap: butt; stroke-linejoin: miter; stroke-miterlimit: 4; stroke-dasharray: none; stroke-opacity: 1; fill: rgb(30, 30, 30); stroke: rgb(9, 9, 9);" d="m 41.420081,89.274115 c -1.752235,0.511811 -3.336295,2.077827 -3.394329,3.975342 -0.04666,1.336461 0.03215,2.674039 -0.01549,4.01121 0.01683,1.053076 -0.09399,2.128139 0.07308,3.166763 0.639018,1.9597 2.527907,3.67355 4.680311,3.50734 2.208717,-0.0205 4.532045,0.34082 6.628363,-0.54455 1.859009,-0.69651 3.07348,-2.33741 4.421605,-3.701408 0.642426,-0.746581 1.394591,-1.420763 1.918689,-2.257221 0.483324,-1.058772 -0.03559,-2.300947 -0.866455,-3.023896 -1.542883,-1.70631 -3.189271,-3.392052 -5.197486,-4.543877 -1.586541,-0.5935 -3.31284,-0.52004 -4.977471,-0.617474 -1.090368,-0.004 -2.180475,0.04179 -3.270817,0.02777 z" id="path1088"/>
      <path style="stroke-width: 0px; stroke-linecap: butt; stroke-linejoin: miter; stroke-miterlimit: 4; stroke-dasharray: none; stroke-opacity: 1; stroke: rgb(9, 9, 9); fill: rgb(9, 9, 9);" d="m 41.759986,96.679225 c 0.841675,-0.598883 1.68335,-1.197767 2.525025,-1.79665 -0.01619,1.197768 -0.03237,2.395535 -0.04856,3.593303 -0.825488,-0.598884 -1.650977,-1.197769 -2.476465,-1.796653 z" id="path1090"/>
    </g>
    <g id="g1098" transform="matrix(3.8978749,0,0,3.8978506,12.218221,-332.96462)">
      <path style="opacity: 1; stroke-width: 0.8px; stroke-linecap: butt; stroke-linejoin: miter; stroke-miterlimit: 4; stroke-dasharray: none; stroke-opacity: 1; fill: rgb(30, 30, 30); stroke: rgb(9, 9, 9);" d="m 41.420081,89.274115 c -1.752235,0.511811 -3.336295,2.077827 -3.394329,3.975342 -0.04666,1.336461 0.03215,2.674039 -0.01549,4.01121 0.01683,1.053076 -0.09399,2.128139 0.07308,3.166763 0.639018,1.9597 2.527907,3.67355 4.680311,3.50734 2.208717,-0.0205 4.532045,0.34082 6.628363,-0.54455 1.859009,-0.69651 3.07348,-2.33741 4.421605,-3.701408 0.642426,-0.746581 1.394591,-1.420763 1.918689,-2.257221 0.483324,-1.058772 -0.03559,-2.300947 -0.866455,-3.023896 -1.542883,-1.70631 -3.189271,-3.392052 -5.197486,-4.543877 -1.586541,-0.5935 -3.31284,-0.52004 -4.977471,-0.617474 -1.090368,-0.004 -2.180475,0.04179 -3.270817,0.02777 z" id="path1094"/>
      <path style="stroke-width: 0px; stroke-linecap: butt; stroke-linejoin: miter; stroke-miterlimit: 4; stroke-dasharray: none; stroke-opacity: 1; stroke: rgb(9, 9, 9); fill: rgb(9, 9, 9);" d="m 41.759986,96.679225 c 0.841675,-0.598883 1.68335,-1.197767 2.525025,-1.79665 -0.01619,1.197768 -0.03237,2.395535 -0.04856,3.593303 -0.825488,-0.598884 -1.650977,-1.197769 -2.476465,-1.796653 z" id="path1096"/>
    </g>
    <g id="g1086" transform="matrix(0,-3.8978512,3.8978512,0,-258.19105,226.67343)">
      <path style="opacity: 1; stroke-width: 0.8px; stroke-linecap: butt; stroke-linejoin: miter; stroke-miterlimit: 4; stroke-dasharray: none; stroke-opacity: 1; fill: rgb(30, 30, 30); stroke: rgb(9, 9, 9);" d="m 41.420081,89.274115 c -1.752235,0.511811 -3.336295,2.077827 -3.394329,3.975342 -0.04666,1.336461 0.03215,2.674039 -0.01549,4.01121 0.01683,1.053076 -0.09399,2.128139 0.07308,3.166763 0.639018,1.9597 2.527907,3.67355 4.680311,3.50734 2.208717,-0.0205 4.532045,0.34082 6.628363,-0.54455 1.859009,-0.69651 3.07348,-2.33741 4.421605,-3.701408 0.642426,-0.746581 1.394591,-1.420763 1.918689,-2.257221 0.483324,-1.058772 -0.03559,-2.300947 -0.866455,-3.023896 -1.542883,-1.70631 -3.189271,-3.392052 -5.197486,-4.543877 -1.586541,-0.5935 -3.31284,-0.52004 -4.977471,-0.617474 -1.090368,-0.004 -2.180475,0.04179 -3.270817,0.02777 z" id="path1082"/>
      <path style="stroke-width: 0px; stroke-linecap: butt; stroke-linejoin: miter; stroke-miterlimit: 4; stroke-dasharray: none; stroke-opacity: 1; stroke: rgb(9, 9, 9); fill: rgb(9, 9, 9);" d="m 41.759986,96.679225 c 0.841675,-0.598883 1.68335,-1.197767 2.525025,-1.79665 -0.01619,1.197768 -0.03237,2.395535 -0.04856,3.593303 -0.825488,-0.598884 -1.650977,-1.197769 -2.476465,-1.796653 z" id="path1084"/>
    </g>
    <g id="g1104" transform="matrix(0,3.8978512,3.8978512,0,-328.804,-139.3726)">
      <path style="display: inline; opacity: 1; stroke-width: 0.8px; stroke-linecap: butt; stroke-linejoin: miter; stroke-miterlimit: 4; stroke-dasharray: none; stroke-opacity: 1; fill: rgb(30, 30, 30); stroke: rgb(9, 9, 9);" d="m 41.420081,89.274115 c -1.752235,0.511811 -3.336295,2.077827 -3.394329,3.975342 -0.04666,1.336461 0.03215,2.674039 -0.01549,4.01121 0.01683,1.053076 -0.09399,2.128139 0.07308,3.166763 0.639018,1.9597 2.527907,3.67355 4.680311,3.50734 2.208717,-0.0205 4.532045,0.34082 6.628363,-0.54455 1.859009,-0.69651 3.07348,-2.33741 4.421605,-3.701408 0.642426,-0.746581 1.394591,-1.420763 1.918689,-2.257221 0.483324,-1.058772 -0.03559,-2.300947 -0.866455,-3.023896 -1.542883,-1.70631 -3.189271,-3.392052 -5.197486,-4.543877 -1.586541,-0.5935 -3.31284,-0.52004 -4.977471,-0.617474 -1.090368,-0.004 -2.180475,0.04179 -3.270817,0.02777 z" id="path1100"/>
      <path style="stroke-width: 0px; stroke-linecap: butt; stroke-linejoin: miter; stroke-miterlimit: 4; stroke-dasharray: none; stroke-opacity: 1; stroke: rgb(9, 9, 9); fill: rgb(9, 9, 9);" d="m 41.759986,96.679225 c 0.841675,-0.598883 1.68335,-1.197767 2.525025,-1.79665 -0.01619,1.197768 -0.03237,2.395535 -0.04856,3.593303 -0.825488,-0.598884 -1.650977,-1.197769 -2.476465,-1.796653 z" id="path1102"/>
    </g>
  </g>
</svg>