<?xml version="1.0" encoding="utf-8"?>
<svg width="279.2301mm" height="263.79214mm" viewBox="0 0 279.2301 263.79215" version="1.1" id="svg5" xmlns="http://www.w3.org/2000/svg">
  <title id="title63815">PS5 DualSense Controller</title>
  <style type="text/css" id="style2">
	.st0{fill:#61E0DF;}
	.st1{fill:#3ED8D2;}
</style>
  <style type="text/css" id="style2-5">
	.st0{fill:#3ED8D2;}
	.st1{fill:#61E0DF;}
	.st2{opacity:8.000000e-002;}
</style>
  <g id="g960" transform="translate(-16.744936,126.89631)">
    <g id="g948" transform="matrix(3.8978512,0,0,3.8978512,-6.6865569,-47.497219)">
      <path style="display: inline; fill-opacity: 1; stroke-width: 0.264583px; stroke-linecap: butt; stroke-linejoin: miter; stroke-opacity: 1; stroke: rgb(9, 9, 9); fill: rgb(118, 0, 255);" d="m 74.918673,44.58649 c -0.878429,-5.347649 -2.58994,-10.504644 -4.137613,-15.684515 -0.96982,-3.216611 -1.863235,-6.623368 -4.157014,-9.188272 -1.15438,-1.243426 -2.316677,-2.492785 -3.867885,-3.245082 -3.614372,-2.196026 -8.39497,-2.037035 -12.024209,0.03156 -2.990661,1.929923 -5.231048,5.014176 -6.078446,8.474587 -0.683197,6.121103 -0.898634,12.280005 -1.395227,18.415918 3.251103,-0.558224 6.565047,-0.621051 9.84849,-0.818523 4.433043,5.71e-4 8.886216,-0.07604 13.282017,0.597576 2.870141,0.318192 5.668299,1.050471 8.529887,1.416755 z" id="path940"/>
      <path id="path942" style="display: inline; fill-opacity: 1; stroke-width: 0.264583px; stroke-linecap: butt; stroke-linejoin: miter; stroke-opacity: 1; stroke: rgb(9, 9, 9); fill: rgb(60, 0, 128);" d="m 57.904578,38.212138 c 2.552203,0.04192 5.113676,0.07723 7.652761,0.352433 2.854828,0.432612 5.783315,0.704911 8.493022,1.759582 0.110143,0.462293 0.217085,0.925081 0.317812,1.389579 l 0.550352,2.872692 c -2.861588,-0.366284 -5.65957,-1.098259 -8.529712,-1.41645 -4.3958,-0.673616 -8.848833,-0.597326 -13.281877,-0.597897 -3.209255,0.193011 -6.447459,0.258852 -9.627835,0.782899 -0.09491,-0.115414 -0.152188,-0.264906 -0.183452,-0.438216 0.07815,-0.993783 0.147895,-1.988116 0.215493,-2.982764 0.531836,-0.584227 1.82173,-0.488828 2.63498,-0.788067 3.868732,-0.755944 7.830391,-0.818285 11.758456,-0.933791 z"/>
      <text style="fill: rgb(60, 0, 128); font-family: Kartika; font-size: 6.35px; font-weight: 700; line-height: 7.93333px; stroke-width: 0.264583px; white-space: pre;" id="text946" x="53.1623" y="35.3312">R2</text>
    </g>
    <g id="g958" transform="matrix(3.8978512,0,0,3.8978512,-141.30183,-47.497219)">
      <path style="display: inline; fill-opacity: 1; stroke-width: 0.264583px; stroke-linecap: butt; stroke-linejoin: miter; stroke-opacity: 1; stroke: rgb(9, 9, 9); fill: rgb(118, 0, 255);" d="m 43.276797,44.58649 c 0.878429,-5.347649 2.58994,-10.504644 4.137613,-15.684515 0.96982,-3.216611 1.863235,-6.623368 4.157014,-9.188272 1.15438,-1.243426 2.316677,-2.492785 3.867885,-3.245082 3.614372,-2.196026 8.39497,-2.037035 12.024209,0.03156 2.990661,1.929923 5.231048,5.014176 6.078446,8.474587 0.683197,6.121103 0.898634,12.280005 1.395227,18.415918 -3.251103,-0.558224 -6.565047,-0.621051 -9.84849,-0.818523 -4.433043,5.71e-4 -8.886216,-0.07604 -13.282017,0.597576 -2.870141,0.318192 -5.668299,1.050471 -8.529887,1.416755 z" id="path950"/>
      <path id="path952" style="display: inline; fill-opacity: 1; stroke-width: 0.999999px; stroke-linecap: butt; stroke-linejoin: miter; stroke-opacity: 1; stroke: rgb(9, 9, 9); fill: rgb(60, 0, 128);" d="m 227.87109,144.42383 c -9.64612,0.15843 -19.32728,0.29191 -28.92382,1.33203 -10.7899,1.63507 -21.8582,2.66423 -32.09961,6.65039 -0.41629,1.74725 -0.82048,3.49637 -1.20118,5.25195 l -2.08007,10.85742 c 10.81545,-1.38438 21.3905,-4.1509 32.23828,-5.35351 16.61405,-2.54595 33.44441,-2.25761 50.19922,-2.25977 12.12947,0.72949 24.36835,0.97834 36.38867,2.95899 0.35873,-0.43621 0.5752,-1.00122 0.69336,-1.65625 -0.29538,-3.75603 -0.55897,-7.51414 -0.81446,-11.27344 -2.01009,-2.2081 -6.88528,-1.84754 -9.95898,-2.97852 -14.62198,-2.85711 -29.59518,-3.09273 -44.44141,-3.52929 z" transform="scale(0.26458333)"/>
      <text style="fill: rgb(60, 0, 128); font-family: Kartika; font-size: 6.35px; font-weight: 700; line-height: 7.93333px; stroke-width: 0.264583px; white-space: pre;" id="text956" x="56.5446" y="35.5325">L2</text>
    </g>
  </g>
  <g id="g938" transform="translate(-16.744936)" style="display:inline">
    <g id="g57201" transform="matrix(3.8978512,0,0,3.8978512,-6.6865569,-47.497219)">
      <path style="display: inline; stroke-width: 0.264583px; stroke-linecap: butt; stroke-linejoin: miter; stroke-opacity: 1; stroke: rgb(9, 9, 9); fill: rgb(30, 30, 30);" d="m 74.918673,44.58649 c -0.878429,-5.347649 -2.58994,-10.504644 -4.137613,-15.684515 -0.96982,-3.216611 -1.863235,-6.623368 -4.157014,-9.188272 -1.15438,-1.243426 -2.316677,-2.492785 -3.867885,-3.245082 -3.614372,-2.196026 -8.39497,-2.037035 -12.024209,0.03156 -2.990661,1.929923 -5.231048,5.014176 -6.078446,8.474587 -0.683197,6.121103 -0.898634,12.280005 -1.395227,18.415918 3.251103,-0.558224 6.565047,-0.621051 9.84849,-0.818523 4.433043,5.71e-4 8.886216,-0.07604 13.282017,0.597576 2.870141,0.318192 5.668299,1.050471 8.529887,1.416755 z" id="path57193"/>
      <path id="path57195" style="display: inline; stroke-width: 0.264583px; stroke-linecap: butt; stroke-linejoin: miter; stroke-opacity: 1; stroke: rgb(9, 9, 9); fill: rgb(16, 16, 16);" d="m 57.904578,38.212138 c 2.552203,0.04192 5.113676,0.07723 7.652761,0.352433 2.854828,0.432612 5.783315,0.704911 8.493022,1.759582 0.110143,0.462293 0.217085,0.925081 0.317812,1.389579 l 0.550352,2.872692 c -2.861588,-0.366284 -5.65957,-1.098259 -8.529712,-1.41645 -4.3958,-0.673616 -8.848833,-0.597326 -13.281877,-0.597897 -3.209255,0.193011 -6.447459,0.258852 -9.627835,0.782899 -0.09491,-0.115414 -0.152188,-0.264906 -0.183452,-0.438216 0.07815,-0.993783 0.147895,-1.988116 0.215493,-2.982764 0.531836,-0.584227 1.82173,-0.488828 2.63498,-0.788067 3.868732,-0.755944 7.830391,-0.818285 11.758456,-0.933791 z"/>
      <text style="font-style: normal; font-weight: normal; font-size: 6.35px; line-height: 1.25; font-family: sans-serif; letter-spacing: 0px; word-spacing: 0px; fill: rgb(0, 0, 0); fill-opacity: 1; stroke: none; stroke-width: 0.264583px; white-space: pre;" x="53.162304" y="35.331207" id="text57199"><tspan id="tspan57197" style="font-style:normal;font-variant:normal;font-weight:bold;font-stretch:normal;font-size:6.35px;font-family:Kartika;-inkscape-font-specification:'Kartika Bold';stroke-width:0.264583" x="53.162304" y="35.331207">R2</tspan></text>
    </g>
    <g id="g57191" transform="matrix(3.8978512,0,0,3.8978512,-141.30183,-47.497219)">
      <path style="display: inline; stroke-width: 0.264583px; stroke-linecap: butt; stroke-linejoin: miter; stroke-opacity: 1; stroke: rgb(9, 9, 9); fill: rgb(30, 30, 30);" d="m 43.276797,44.58649 c 0.878429,-5.347649 2.58994,-10.504644 4.137613,-15.684515 0.96982,-3.216611 1.863235,-6.623368 4.157014,-9.188272 1.15438,-1.243426 2.316677,-2.492785 3.867885,-3.245082 3.614372,-2.196026 8.39497,-2.037035 12.024209,0.03156 2.990661,1.929923 5.231048,5.014176 6.078446,8.474587 0.683197,6.121103 0.898634,12.280005 1.395227,18.415918 -3.251103,-0.558224 -6.565047,-0.621051 -9.84849,-0.818523 -4.433043,5.71e-4 -8.886216,-0.07604 -13.282017,0.597576 -2.870141,0.318192 -5.668299,1.050471 -8.529887,1.416755 z" id="path26935"/>
      <path id="path27065" style="display: inline; stroke-width: 0.999999px; stroke-linecap: butt; stroke-linejoin: miter; stroke-opacity: 1; stroke: rgb(9, 9, 9); fill: rgb(16, 16, 16);" d="m 227.87109,144.42383 c -9.64612,0.15843 -19.32728,0.29191 -28.92382,1.33203 -10.7899,1.63507 -21.8582,2.66423 -32.09961,6.65039 -0.41629,1.74725 -0.82048,3.49637 -1.20118,5.25195 l -2.08007,10.85742 c 10.81545,-1.38438 21.3905,-4.1509 32.23828,-5.35351 16.61405,-2.54595 33.44441,-2.25761 50.19922,-2.25977 12.12947,0.72949 24.36835,0.97834 36.38867,2.95899 0.35873,-0.43621 0.5752,-1.00122 0.69336,-1.65625 -0.29538,-3.75603 -0.55897,-7.51414 -0.81446,-11.27344 -2.01009,-2.2081 -6.88528,-1.84754 -9.95898,-2.97852 -14.62198,-2.85711 -29.59518,-3.09273 -44.44141,-3.52929 z" transform="scale(0.26458333)"/>
      <text style="font-style: normal; font-weight: normal; font-size: 6.35px; line-height: 1.25; font-family: sans-serif; letter-spacing: 0px; word-spacing: 0px; fill: rgb(0, 0, 0); fill-opacity: 1; stroke: none; stroke-width: 0.264583px; white-space: pre;" x="56.544556" y="35.532532" id="text33255"><tspan id="tspan33253" style="font-style:normal;font-variant:normal;font-weight:bold;font-stretch:normal;font-size:6.35px;font-family:Kartika;-inkscape-font-specification:'Kartika Bold';stroke-width:0.264583" x="56.544556" y="35.532532">L2</tspan></text>
    </g>
  </g>
</svg>